# xmcd
#
# Track frame offsets:
#	150
#	12797
#	30447
#	44842
#	60414
#	77321
#	90561
#	114728
#	126820
#	140472
#	156359
#	169989
#
# Disc length: 2451 seconds
#
# Revision: 1
# Processed by: cddbd v1.5.2PL0 Copyright (c) Steve Scherf et al.
# Submitted via: audiograbber 1.83.01
#
DISCID=9409910c
DTITLE=Todd Rundgren - Todd Rundgren's Johnson
DYEAR=2011
DGENRE=Blues
TTITLE0=Dust My Broom
TTITLE1=Stop Breakin Down
TTITLE2=Kindhearted Woman Blues
TTITLE3=Walking Blues
TTITLE4=Love In Vain
TTITLE5=Last Fair Deal Gone Down
TTITLE6=Sweet Home Chicago
TTITLE7=They're Red Hot
TTITLE8=Come On In My Kitchen
TTITLE9=Hellhound On My Train
TTITLE10=Traveling Riverside Blues
TTITLE11=Crossroads Blues
EXTD=
EXTT0=
EXTT1=
EXTT2=
EXTT3=
EXTT4=
EXTT5=
EXTT6=
EXTT7=
EXTT8=
EXTT9=
EXTT10=
EXTT11=
PLAYORDER=
